<svg width="378" height="378" xmlns="http://www.w3.org/2000/svg" xmlns:xlink="http://www.w3.org/1999/xlink" overflow="hidden"><defs><filter id="fx0" x="-10%" y="-10%" width="120%" height="120%" filterUnits="userSpaceOnUse" primitiveUnits="userSpaceOnUse"><feComponentTransfer color-interpolation-filters="sRGB"><feFuncR type="discrete" tableValues="0 0"/><feFuncG type="discrete" tableValues="0 0"/><feFuncB type="discrete" tableValues="0 0"/><feFuncA type="linear" slope="0.4" intercept="0"/></feComponentTransfer><feGaussianBlur stdDeviation="1.77778 1.77778"/></filter><clipPath id="clip1"><rect x="0" y="0" width="378" height="378"/></clipPath><clipPath id="clip2"><path d="M189 38C105.605 38 38 105.605 38 189 38 272.395 105.605 340 189 340 272.395 340 340 272.395 340 189 340 105.605 272.395 38 189 38ZM5.63264e-06 5.63264e-06 378 5.63264e-06 378 378 5.63264e-06 378Z" fill-rule="evenodd" clip-rule="evenodd"/></clipPath><clipPath id="clip3"><rect x="-2" y="-2" width="349" height="349"/></clipPath><clipPath id="clip4"><rect x="0" y="0" width="346" height="346"/></clipPath></defs><g clip-path="url(#clip1)"><rect x="0" y="0" width="378" height="378" fill="#FFFFFF"/><g clip-path="url(#clip2)"><g clip-path="url(#clip3)" filter="url(#fx0)" transform="translate(16 25)"><g clip-path="url(#clip4)"><path d="M17.47 172.83C17.47 86.9332 87.1031 17.3 173 17.3 258.897 17.3 328.53 86.9332 328.53 172.83 328.53 258.727 258.897 328.36 173 328.36 87.1031 328.36 17.47 258.727 17.47 172.83Z" stroke="#FF6600" stroke-width="21" stroke-miterlimit="8" fill="#FFFFFF" fill-rule="evenodd"/></g></g></g><path d="M38 189C38 105.605 105.605 38 189 38 272.395 38 340 105.605 340 189 340 272.395 272.395 340 189 340 105.605 340 38 272.395 38 189Z" stroke="#FF6600" stroke-width="20" stroke-miterlimit="8" fill="#FFFFFF" fill-rule="evenodd"/><text fill="#FF6600" font-family="Arial,Arial_MSFontService,sans-serif" font-weight="700" font-size="117" transform="translate(106.228 292)">L</text><path d="M95.4025 162.857 141.063 143.281 144.597 151.525 98.9371 171.101Z" stroke="#7F7F7F" stroke-width="2.66667" stroke-miterlimit="8" fill="#7F7F7F" fill-rule="evenodd"/><path d="M149.897 145.496 193.618 169.089 189.358 176.983 145.638 153.39Z" stroke="#7F7F7F" stroke-width="2.66667" stroke-miterlimit="8" fill="#7F7F7F" fill-rule="evenodd"/><path d="M199.882 171.677 235.443 206.367 229.18 212.788 193.618 178.098Z" stroke="#7F7F7F" stroke-width="2.66667" stroke-miterlimit="8" fill="#7F7F7F" fill-rule="evenodd"/><path d="M238.113 209.566 284.671 192.233 287.8 200.639 241.243 217.972Z" stroke="#7F7F7F" stroke-width="2.66667" stroke-miterlimit="8" fill="#7F7F7F" fill-rule="evenodd"/><path d="M76.5001 168.5C76.5001 156.902 85.6782 147.5 97.0001 147.5 108.322 147.5 117.5 156.902 117.5 168.5 117.5 180.098 108.322 189.5 97.0001 189.5 85.6782 189.5 76.5001 180.098 76.5001 168.5Z" stroke="#7F7F7F" stroke-width="2.66667" stroke-miterlimit="8" fill="#7F7F7F" fill-rule="evenodd"/><path d="M123.5 150C123.5 138.678 132.678 129.5 144 129.5 155.322 129.5 164.5 138.678 164.5 150 164.5 161.322 155.322 170.5 144 170.5 132.678 170.5 123.5 161.322 123.5 150Z" stroke="#7F7F7F" stroke-width="2.66667" stroke-miterlimit="8" fill="#7F7F7F" fill-rule="evenodd"/><path d="M170.5 168.5C170.5 156.902 179.902 147.5 191.5 147.5 203.098 147.5 212.5 156.902 212.5 168.5 212.5 180.098 203.098 189.5 191.5 189.5 179.902 189.5 170.5 180.098 170.5 168.5Z" stroke="#7F7F7F" stroke-width="2.66667" stroke-miterlimit="8" fill="#7F7F7F" fill-rule="evenodd"/><path d="M217.5 214C217.5 202.678 226.902 193.5 238.5 193.5 250.098 193.5 259.5 202.678 259.5 214 259.5 225.322 250.098 234.5 238.5 234.5 226.902 234.5 217.5 225.322 217.5 214Z" stroke="#FF6600" stroke-width="2.66667" stroke-miterlimit="8" fill="#FF6600" fill-rule="evenodd"/><path d="M265.5 199C265.5 187.678 274.678 178.5 286 178.5 297.322 178.5 306.5 187.678 306.5 199 306.5 210.322 297.322 219.5 286 219.5 274.678 219.5 265.5 210.322 265.5 199Z" stroke="#FF6600" stroke-width="2.66667" stroke-miterlimit="8" fill="#FF6600" fill-rule="evenodd"/></g></svg>