<svg width="378" height="378" xmlns="http://www.w3.org/2000/svg" xmlns:xlink="http://www.w3.org/1999/xlink" overflow="hidden"><defs><filter id="fx0" x="-10%" y="-10%" width="120%" height="120%" filterUnits="userSpaceOnUse" primitiveUnits="userSpaceOnUse"><feComponentTransfer color-interpolation-filters="sRGB"><feFuncR type="discrete" tableValues="0 0"/><feFuncG type="discrete" tableValues="0 0"/><feFuncB type="discrete" tableValues="0 0"/><feFuncA type="linear" slope="0.4" intercept="0"/></feComponentTransfer><feGaussianBlur stdDeviation="1.77778 1.77778"/></filter><clipPath id="clip1"><rect x="0" y="0" width="378" height="378"/></clipPath><clipPath id="clip2"><path d="M189 38C105.605 38 38 105.829 38 189.5 38 273.171 105.605 341 189 341 272.395 341 340 273.171 340 189.5 340 105.829 272.395 38 189 38ZM5.63264e-06 5.63264e-06 378 5.63264e-06 378 378 5.63264e-06 378Z" fill-rule="evenodd" clip-rule="evenodd"/></clipPath><clipPath id="clip3"><rect x="-2" y="-2" width="349" height="349"/></clipPath><clipPath id="clip4"><rect x="0" y="0" width="346" height="347"/></clipPath></defs><g clip-path="url(#clip1)"><rect x="0" y="0" width="378" height="378" fill="#FFFFFF"/><g clip-path="url(#clip2)"><g clip-path="url(#clip3)" filter="url(#fx0)" transform="translate(16 25)"><g clip-path="url(#clip4)"><path d="M17.47 173.345C17.47 87.1637 87.1031 17.3 173 17.3 258.897 17.3 328.53 87.1637 328.53 173.345 328.53 259.526 258.897 329.39 173 329.39 87.1031 329.39 17.47 259.526 17.47 173.345Z" stroke="#BFBFBF" stroke-width="21" stroke-miterlimit="8" fill="#FFFFFF" fill-rule="evenodd"/></g></g></g><path d="M38 189.5C38 105.829 105.605 38 189 38 272.395 38 340 105.829 340 189.5 340 273.171 272.395 341 189 341 105.605 341 38 273.171 38 189.5Z" stroke="#BFBFBF" stroke-width="20" stroke-miterlimit="8" fill="#FFFFFF" fill-rule="evenodd"/><text fill="#7F7F7F" font-family="Arial,Arial_MSFontService,sans-serif" font-weight="700" font-size="117" transform="translate(155.851 158)">?</text><path d="M38.5001 222.5 340.862 222.5" stroke="#BFBFBF" stroke-width="8.66667" stroke-miterlimit="8" stroke-dasharray="26 8.66667" fill="none" fill-rule="evenodd"/><path d="M72.5001 239.762C89.0456 219.168 107.725 201.801 129.638 201.507 152.134 202.459 176.57 239.689 192.563 242.313 206.31 245.118 205.897 218.733 212.814 217.659 217.563 216.414 220.151 239.182 233.066 241.463 248.557 244.786 291.62 235.385 302.5 237.212" stroke="#7F7F7F" stroke-width="10.6667" stroke-miterlimit="8" fill="none" fill-rule="evenodd"/></g></svg>