<svg width="378" height="378" xmlns="http://www.w3.org/2000/svg" xmlns:xlink="http://www.w3.org/1999/xlink" overflow="hidden"><defs><filter id="fx0" x="-10%" y="-10%" width="120%" height="120%" filterUnits="userSpaceOnUse" primitiveUnits="userSpaceOnUse"><feComponentTransfer color-interpolation-filters="sRGB"><feFuncR type="discrete" tableValues="0 0"/><feFuncG type="discrete" tableValues="0 0"/><feFuncB type="discrete" tableValues="0 0"/><feFuncA type="linear" slope="0.4" intercept="0"/></feComponentTransfer><feGaussianBlur stdDeviation="1.77778 1.77778"/></filter><clipPath id="clip1"><rect x="0" y="0" width="378" height="378"/></clipPath><clipPath id="clip2"><path d="M189 38C105.605 38 38 105.605 38 189 38 272.395 105.605 340 189 340 272.395 340 340 272.395 340 189 340 105.605 272.395 38 189 38ZM5.63264e-06 5.63264e-06 378 5.63264e-06 378 378 5.63264e-06 378Z" fill-rule="evenodd" clip-rule="evenodd"/></clipPath><clipPath id="clip3"><rect x="-2" y="-2" width="349" height="349"/></clipPath><clipPath id="clip4"><rect x="0" y="0" width="346" height="346"/></clipPath></defs><g clip-path="url(#clip1)"><rect x="0" y="0" width="378" height="378" fill="#FFFFFF"/><g clip-path="url(#clip2)"><g clip-path="url(#clip3)" filter="url(#fx0)" transform="translate(16 25)"><g clip-path="url(#clip4)"><path d="M17.47 172.83C17.47 86.9332 87.1031 17.3 173 17.3 258.897 17.3 328.53 86.9332 328.53 172.83 328.53 258.727 258.897 328.36 173 328.36 87.1031 328.36 17.47 258.727 17.47 172.83Z" stroke="#BFBFBF" stroke-width="21" stroke-miterlimit="8" fill="#FFFFFF" fill-rule="evenodd"/></g></g></g><path d="M38 189C38 105.605 105.605 38 189 38 272.395 38 340 105.605 340 189 340 272.395 272.395 340 189 340 105.605 340 38 272.395 38 189Z" stroke="#BFBFBF" stroke-width="20" stroke-miterlimit="8" fill="#FFFFFF" fill-rule="evenodd"/><path d="M106.903 196.084 144.607 228.433 138.766 235.241 101.062 202.892Z" stroke="#BFBFBF" stroke-width="2.66667" stroke-miterlimit="8" fill="#BFBFBF" fill-rule="evenodd"/><path d="M146.159 218.909 179.921 159.846 187.708 164.298 153.946 223.361Z" stroke="#BFBFBF" stroke-width="2.66667" stroke-miterlimit="8" fill="#BFBFBF" fill-rule="evenodd"/><path d="M198.708 154.94 239.365 214.134 231.971 219.212 191.314 160.019Z" stroke="#BFBFBF" stroke-width="2.66667" stroke-miterlimit="8" fill="#BFBFBF" fill-rule="evenodd"/><path d="M238.825 216.117 285.383 198.784 288.512 207.19 241.954 224.523Z" stroke="#BFBFBF" stroke-width="2.66667" stroke-miterlimit="8" fill="#BFBFBF" fill-rule="evenodd"/><path d="M76.5001 195C76.5001 183.678 85.6782 174.5 97.0001 174.5 108.322 174.5 117.5 183.678 117.5 195 117.5 206.322 108.322 215.5 97.0001 215.5 85.6782 215.5 76.5001 206.322 76.5001 195Z" stroke="#BFBFBF" stroke-width="2.66667" stroke-miterlimit="8" fill="#BFBFBF" fill-rule="evenodd"/><path d="M123.5 233C123.5 221.678 132.678 212.5 144 212.5 155.322 212.5 164.5 221.678 164.5 233 164.5 244.322 155.322 253.5 144 253.5 132.678 253.5 123.5 244.322 123.5 233Z" stroke="#BFBFBF" stroke-width="2.66667" stroke-miterlimit="8" fill="#BFBFBF" fill-rule="evenodd"/><path d="M170.5 153.5C170.5 141.902 179.902 132.5 191.5 132.5 203.098 132.5 212.5 141.902 212.5 153.5 212.5 165.098 203.098 174.5 191.5 174.5 179.902 174.5 170.5 165.098 170.5 153.5Z" stroke="#BFBFBF" stroke-width="2.66667" stroke-miterlimit="8" fill="#BFBFBF" fill-rule="evenodd"/><path d="M217.5 221.5C217.5 209.902 226.902 200.5 238.5 200.5 250.098 200.5 259.5 209.902 259.5 221.5 259.5 233.098 250.098 242.5 238.5 242.5 226.902 242.5 217.5 233.098 217.5 221.5Z" stroke="#BFBFBF" stroke-width="2.66667" stroke-miterlimit="8" fill="#BFBFBF" fill-rule="evenodd"/><path d="M265.5 206.5C265.5 194.902 274.678 185.5 286 185.5 297.322 185.5 306.5 194.902 306.5 206.5 306.5 218.098 297.322 227.5 286 227.5 274.678 227.5 265.5 218.098 265.5 206.5Z" stroke="#BFBFBF" stroke-width="2.66667" stroke-miterlimit="8" fill="#BFBFBF" fill-rule="evenodd"/></g></svg>