<svg width="378" height="378" xmlns="http://www.w3.org/2000/svg" xmlns:xlink="http://www.w3.org/1999/xlink" overflow="hidden"><defs><filter id="fx0" x="-10%" y="-10%" width="120%" height="120%" filterUnits="userSpaceOnUse" primitiveUnits="userSpaceOnUse"><feComponentTransfer color-interpolation-filters="sRGB"><feFuncR type="discrete" tableValues="0 0"/><feFuncG type="discrete" tableValues="0 0"/><feFuncB type="discrete" tableValues="0 0"/><feFuncA type="linear" slope="0.4" intercept="0"/></feComponentTransfer><feGaussianBlur stdDeviation="1.77778 1.77778"/></filter><clipPath id="clip1"><rect x="0" y="0" width="378" height="378"/></clipPath><clipPath id="clip2"><path d="M189 38C105.605 38 38 105.605 38 189 38 272.395 105.605 340 189 340 272.395 340 340 272.395 340 189 340 105.605 272.395 38 189 38ZM5.63264e-06 5.63264e-06 378 5.63264e-06 378 378 5.63264e-06 378Z" fill-rule="evenodd" clip-rule="evenodd"/></clipPath><clipPath id="clip3"><rect x="-2" y="-2" width="349" height="349"/></clipPath><clipPath id="clip4"><rect x="0" y="0" width="346" height="346"/></clipPath></defs><g clip-path="url(#clip1)"><rect x="0" y="0" width="378" height="378" fill="#FFFFFF"/><g clip-path="url(#clip2)"><g clip-path="url(#clip3)" filter="url(#fx0)" transform="translate(16 25)"><g clip-path="url(#clip4)"><path d="M0 155.53C-1.9801e-14 69.6331 69.6331-1.9801e-14 155.53-3.96021e-14 241.427-7.92042e-14 311.06 69.6331 311.06 155.53 311.06 241.427 241.427 311.06 155.53 311.06 69.6331 311.06-9.90052e-14 241.427 0 155.53Z" stroke="#FF6600" stroke-width="21" stroke-miterlimit="8" fill="#FFFFFF" fill-rule="evenodd" transform="matrix(1 0 0 -1 17.47 328.36)"/></g></g></g><path d="M0 151C-1.92243e-14 67.605 67.605-1.92243e-14 151-3.84486e-14 234.395-7.68973e-14 302 67.605 302 151 302 234.395 234.395 302 151 302 67.605 302-9.61216e-14 234.395 0 151Z" stroke="#FF6600" stroke-width="20" stroke-miterlimit="8" fill="#FFFFFF" fill-rule="evenodd" transform="matrix(1 0 0 -1 38 340)"/><text fill="#FF6600" font-family="Arial,Arial_MSFontService,sans-serif" font-weight="700" font-size="117" transform="translate(106.228 172)">H</text><rect x="0" y="0" width="49.6797" height="8.97008" stroke="#7F7F7F" stroke-width="2.66667" stroke-miterlimit="8" fill="#7F7F7F" transform="matrix(0.919094 0.394039 0.394039 -0.919094 95.4025 215.096)"/><rect x="0" y="0" width="49.6797" height="8.97008" stroke="#7F7F7F" stroke-width="2.66667" stroke-miterlimit="8" fill="#7F7F7F" transform="matrix(0.880045 -0.47489 -0.47489 -0.880045 149.897 232.457)"/><rect x="0" y="0" width="49.6797" height="8.97008" stroke="#7F7F7F" stroke-width="2.66667" stroke-miterlimit="8" fill="#7F7F7F" transform="matrix(0.715824 -0.698281 -0.698281 -0.715824 199.882 206.276)"/><rect x="0" y="0" width="49.6797" height="8.97008" stroke="#7F7F7F" stroke-width="2.66667" stroke-miterlimit="8" fill="#7F7F7F" transform="matrix(0.937161 0.348898 0.348898 -0.937161 238.113 168.387)"/><path d="M0 21C-2.60992e-15 9.40202 9.17816-2.67358e-15 20.5-5.34716e-15 31.8218-1.06943e-14 41 9.40202 41 21 41 32.598 31.8218 42 20.5 42 9.17816 42-1.30496e-14 32.598 0 21Z" stroke="#7F7F7F" stroke-width="2.66667" stroke-miterlimit="8" fill="#7F7F7F" fill-rule="evenodd" transform="matrix(1 0 0 -1 76.5001 231.5)"/><path d="M0 20.5C-2.60992e-15 9.17816 9.17816-2.60992e-15 20.5-5.21985e-15 31.8218-1.04397e-14 41 9.17816 41 20.5 41 31.8218 31.8218 41 20.5 41 9.17816 41-1.30496e-14 31.8218 0 20.5Z" stroke="#7F7F7F" stroke-width="2.66667" stroke-miterlimit="8" fill="#7F7F7F" fill-rule="evenodd" transform="matrix(1 0 0 -1 123.5 249.5)"/><path d="M0 21C-2.67358e-15 9.40202 9.40202-2.67358e-15 21-5.34716e-15 32.598-1.06943e-14 42 9.40202 42 21 42 32.598 32.598 42 21 42 9.40202 42-1.33679e-14 32.598 0 21Z" stroke="#7F7F7F" stroke-width="2.66667" stroke-miterlimit="8" fill="#7F7F7F" fill-rule="evenodd" transform="matrix(1 0 0 -1 170.5 231.5)"/><path d="M0 20.5C-2.67358e-15 9.17816 9.40202-2.60992e-15 21-5.21985e-15 32.598-1.04397e-14 42 9.17816 42 20.5 42 31.8218 32.598 41 21 41 9.40202 41-1.33679e-14 31.8218 0 20.5Z" stroke="#FF6600" stroke-width="2.66667" stroke-miterlimit="8" fill="#FF6600" fill-rule="evenodd" transform="matrix(1 0 0 -1 217.5 185.5)"/><path d="M0 20.5C-2.60992e-15 9.17816 9.17816-2.60992e-15 20.5-5.21985e-15 31.8218-1.04397e-14 41 9.17816 41 20.5 41 31.8218 31.8218 41 20.5 41 9.17816 41-1.30496e-14 31.8218 0 20.5Z" stroke="#FF6600" stroke-width="2.66667" stroke-miterlimit="8" fill="#FF6600" fill-rule="evenodd" transform="matrix(1 0 0 -1 265.5 200.5)"/></g></svg>